<svg width="16" height="16" viewBox="0 0 16 16" fill="none" xmlns="http://www.w3.org/2000/svg">
<path fill-rule="evenodd" clip-rule="evenodd" d="M11.4999 6.99941C11.4999 7.59035 11.3835 8.17552 11.1573 8.72148C10.9312 9.26745 10.5997 9.76352 10.1819 10.1814C9.76401 10.5992 9.26794 10.9307 8.72197 11.1569C8.17601 11.383 7.59085 11.4994 6.9999 11.4994C6.40895 11.4994 5.82379 11.383 5.27782 11.1569C4.73186 10.9307 4.23578 10.5992 3.81792 10.1814C3.40005 9.76352 3.06859 9.26745 2.84244 8.72148C2.61629 8.17552 2.4999 7.59035 2.4999 6.99941C2.4999 5.80593 2.974 4.66134 3.81792 3.81743C4.66183 2.97351 5.80642 2.49941 6.9999 2.49941C8.19337 2.49941 9.33796 2.97351 10.1819 3.81743C11.0258 4.66134 11.4999 5.80593 11.4999 6.99941ZM10.6799 11.7394C9.47428 12.6754 7.95727 13.1167 6.4377 12.9735C4.91813 12.8304 3.51024 12.1135 2.50065 10.9688C1.49105 9.82412 0.955652 8.3377 1.00343 6.81216C1.05122 5.28661 1.6786 3.83661 2.75785 2.75736C3.83711 1.67811 5.2871 1.05073 6.81265 1.00294C8.3382 0.955161 9.82461 1.49056 10.9693 2.50016C12.114 3.50975 12.8309 4.91764 12.974 6.43721C13.1172 7.95677 12.6759 9.47378 11.7399 10.6794L14.7799 13.7194C14.8536 13.7881 14.9127 13.8709 14.9537 13.9629C14.9947 14.0549 15.0167 14.1542 15.0185 14.2549C15.0203 14.3556 15.0017 14.4556 14.964 14.549C14.9263 14.6424 14.8701 14.7272 14.7989 14.7984C14.7277 14.8697 14.6429 14.9258 14.5495 14.9635C14.4561 15.0012 14.3561 15.0198 14.2554 15.018C14.1547 15.0162 14.0553 14.9942 13.9634 14.9532C13.8714 14.9122 13.7886 14.8531 13.7199 14.7794L10.6799 11.7394Z" fill="#24292E"/>
</svg>
